<?xml version="1.0" encoding="UTF-8" standalone="no"?>
<svg
   xmlns:dc="http://purl.org/dc/elements/1.1/"
   xmlns:cc="http://creativecommons.org/ns#"
   xmlns:rdf="http://www.w3.org/1999/02/22-rdf-syntax-ns#"
   xmlns:svg="http://www.w3.org/2000/svg"
   xmlns="http://www.w3.org/2000/svg"
   xmlns:sodipodi="http://sodipodi.sourceforge.net/DTD/sodipodi-0.dtd"
   xmlns:inkscape="http://www.inkscape.org/namespaces/inkscape"
   width="114.81953mm"
   height="67.210785mm"
   viewBox="0 0 114.81953 67.210785"
   version="1.1"
   id="svg8"
   inkscape:version="1.0 (4035a4fb49, 2020-05-01)"
   sodipodi:docname="header.svg">
  <defs
     id="defs2">
    <rect
       x="18.898809"
       y="20.410713"
       width="173.1131"
       height="90.714287"
       id="rect12" />
  </defs>
  <sodipodi:namedview
     id="base"
     pagecolor="#ffffff"
     bordercolor="#666666"
     borderopacity="1.0"
     inkscape:pageopacity="0.0"
     inkscape:pageshadow="2"
     inkscape:zoom="0.35"
     inkscape:cx="219.08588"
     inkscape:cy="467.18773"
     inkscape:document-units="mm"
     inkscape:current-layer="layer1"
     inkscape:document-rotation="0"
     showgrid="false"
     fit-margin-top="0"
     fit-margin-left="0"
     fit-margin-right="0"
     fit-margin-bottom="0"
     inkscape:window-width="1360"
     inkscape:window-height="705"
     inkscape:window-x="-8"
     inkscape:window-y="-8"
     inkscape:window-maximized="1" />
  <metadata
     id="metadata5">
    <rdf:RDF>
      <cc:Work
         rdf:about="">
        <dc:format>image/svg+xml</dc:format>
        <dc:type
           rdf:resource="http://purl.org/dc/dcmitype/StillImage" />
        <dc:title />
      </cc:Work>
    </rdf:RDF>
  </metadata>
  <g
     inkscape:label="Layer 1"
     inkscape:groupmode="layer"
     id="layer1"
     transform="translate(-47.86686,-24.55658)">
    <g
       style="font-style:normal;font-variant:normal;font-weight:normal;font-stretch:normal;font-size:19.7556px;line-height:1.25;font-family:'Times New Roman';-inkscape-font-specification:'Times New Roman, ';text-align:center;letter-spacing:0px;word-spacing:0px;white-space:pre;shape-inside:url(#rect12);fill:#000000;fill-opacity:1;stroke:none"
       id="text10"
       aria-label="Copywriting.
Proofreading.
Editing.">
      <path
         id="path21"
         style="font-weight:bold"
         d="m 62.92459,24.566236 v 4.533755 h -0.376206 q -0.424436,-1.774917 -1.581991,-2.720253 -1.157555,-0.945336 -2.623791,-0.945336 -1.225078,0 -2.247585,0.704179 -1.022507,0.704179 -1.495175,1.842441 -0.607716,1.45659 -0.607716,3.241153 0,1.755625 0.443729,3.202568 0.44373,1.437297 1.389066,2.180061 0.945336,0.733118 2.450157,0.733118 1.234725,0 2.257232,-0.540192 1.032153,-0.540192 2.170415,-1.861734 v 1.128616 q -1.099677,1.147908 -2.295817,1.668808 -1.186493,0.511253 -2.778131,0.511253 -2.093245,0 -3.723468,-0.839227 -1.620576,-0.839227 -2.508035,-2.411572 -0.877812,-1.572345 -0.877812,-3.347262 0,-1.87138 0.974275,-3.549835 0.983922,-1.678454 2.643083,-2.604498 1.668808,-0.926043 3.540188,-0.926043 1.37942,0 2.91318,0.598069 0.887458,0.347267 1.128616,0.347267 0.308681,0 0.530545,-0.221865 0.231511,-0.231511 0.299035,-0.723471 z" />
      <path
         id="path23"
         style="font-weight:bold"
         d="m 68.934227,28.656262 q 1.176848,0 2.189708,0.607716 1.01286,0.607717 1.53376,1.726686 0.530546,1.11897 0.530546,2.450157 0,1.919612 -0.974275,3.212215 -1.176848,1.562699 -3.2508,1.562699 -2.035367,0 -3.135044,-1.427651 -1.099677,-1.427651 -1.099677,-3.308677 0,-1.938904 1.11897,-3.376202 1.128616,-1.446943 3.086812,-1.446943 z m 0.03859,0.684887 q -0.491961,0 -0.848874,0.376205 -0.347266,0.366559 -0.463022,1.466236 -0.106109,1.09003 -0.106109,3.038581 0,1.032153 0.135048,1.929258 0.106109,0.684886 0.453376,1.041799 0.347266,0.356913 0.790995,0.356913 0.434083,0 0.723472,-0.241158 0.376205,-0.327973 0.501607,-0.916397 0.192926,-0.916398 0.192926,-3.704175 0,-1.639869 -0.18328,-2.247585 -0.183279,-0.617363 -0.540192,-0.897105 -0.250803,-0.202572 -0.655947,-0.202572 z" />
      <path
         id="path25"
         style="font-weight:bold"
         d="m 78.049971,37.029241 v 3.356909 q 0,0.694532 0.10611,0.945336 0.115755,0.250803 0.347266,0.366559 0.231511,0.115755 0.906751,0.115755 v 0.356913 H 74.268626 V 41.8138 q 0.59807,-0.01929 0.887459,-0.33762 0.192926,-0.221864 0.192926,-1.147908 v -9.520887 q 0,-0.954983 -0.221865,-1.215433 -0.221865,-0.270096 -0.85852,-0.308681 v -0.356913 h 3.781345 v 1.186494 q 0.472669,-0.694533 0.964629,-1.003214 0.704179,-0.453376 1.53376,-0.453376 0.993568,0 1.803856,0.627009 0.819935,0.627009 1.244372,1.736332 0.424436,1.099677 0.424436,2.372987 0,1.369773 -0.443729,2.508035 -0.434083,1.128616 -1.27331,1.726686 -0.829581,0.588424 -1.852088,0.588424 -0.742764,0 -1.389065,-0.327974 -0.482315,-0.250804 -1.012861,-0.85852 z m 0,-0.974275 q 0.829581,1.176847 1.774918,1.176847 0.520899,0 0.858519,-0.549838 0.501607,-0.810289 0.501607,-3.086813 0,-2.334402 -0.549838,-3.192922 -0.366559,-0.569131 -0.983922,-0.569131 -0.974275,0 -1.601284,1.408359 z" />
      <path
         id="path27"
         style="font-weight:bold"
         d="m 89.693042,38.312197 -2.91318,-6.684878 q -0.655947,-1.514467 -0.974275,-1.861734 -0.308681,-0.347266 -0.75241,-0.482314 v -0.356913 h 4.794205 v 0.356913 q -0.472668,0.01929 -0.665594,0.183279 -0.192925,0.163987 -0.192925,0.395498 0,0.366559 0.482314,1.446944 l 1.543406,3.530541 1.051446,-2.729899 q 0.569131,-1.45659 0.569131,-2.025721 0,-0.356913 -0.241157,-0.569131 -0.231511,-0.212219 -0.829581,-0.231511 v -0.356913 h 3.019288 v 0.356913 q -0.443729,0.04823 -0.723471,0.347266 -0.279743,0.289389 -0.93569,1.996782 l -2.57556,6.684878 q -0.974275,2.508036 -1.446943,3.086813 -0.665594,0.810288 -1.668808,0.810288 -0.800642,0 -1.302249,-0.463022 -0.491961,-0.453375 -0.491961,-1.099677 0,-0.559484 0.33762,-0.926043 0.347267,-0.366559 0.848874,-0.366559 0.482314,0 0.771703,0.308681 0.299035,0.308681 0.308681,0.954983 0.0096,0.366559 0.08682,0.472668 0.07717,0.106109 0.221864,0.106109 0.231511,0 0.491961,-0.279743 0.385852,-0.405144 0.906751,-1.852087 z" />
      <path
         id="path29"
         style="font-weight:bold"
         d="m 104.37469,38.215735 -2.46945,-6.617355 -2.421215,6.617355 H 98.982418 L 96.580492,31.675551 Q 96.0403,30.180376 95.664095,29.727 95.422937,29.418319 94.930977,29.283271 v -0.356913 h 4.553048 v 0.356913 q -0.463022,0 -0.636655,0.135048 -0.173633,0.135048 -0.173633,0.308681 0,0.163987 0.308681,0.983922 l 1.321542,3.520895 1.27331,-3.520895 -0.0965,-0.231511 q -0.28939,-0.723472 -0.51126,-0.916398 -0.21221,-0.202572 -0.66559,-0.279742 v -0.356913 h 4.62057 v 0.356913 q -0.54019,0.02894 -0.68488,0.154341 -0.1447,0.115755 -0.1447,0.33762 0,0.212218 0.27974,0.93569 l 1.27331,3.520895 1.15756,-3.241153 q 0.2508,-0.694533 0.2508,-0.945336 0,-0.376206 -0.18328,-0.549839 -0.18328,-0.173633 -0.71382,-0.212218 v -0.356913 h 2.67202 v 0.356913 q -0.44373,0.05788 -0.70418,0.318327 -0.26045,0.250804 -0.67524,1.446944 l -2.52733,7.167193 z" />
      <path
         id="path31"
         style="font-weight:bold"
         d="m 113.45185,28.926358 v 2.045013 q 0.89711,-1.398711 1.57235,-1.852087 0.67524,-0.463022 1.30225,-0.463022 0.54019,0 0.85852,0.33762 0.32797,0.327974 0.32797,0.93569 0,0.646302 -0.31833,1.003214 -0.30868,0.356913 -0.75241,0.356913 -0.51125,0 -0.88746,-0.327974 -0.3762,-0.327974 -0.44373,-0.366559 -0.0965,-0.05788 -0.22186,-0.05788 -0.27974,0 -0.53055,0.212219 -0.39549,0.327974 -0.59807,0.93569 -0.30868,0.93569 -0.30868,2.064306 v 2.073952 l 0.01,0.540192 q 0,0.549839 0.0675,0.704179 0.11576,0.26045 0.33762,0.385852 0.23151,0.115755 0.77171,0.144694 v 0.347266 h -4.87138 v -0.347266 q 0.58842,-0.04823 0.791,-0.318327 0.21221,-0.279743 0.21221,-1.45659 v -4.987132 q 0,-0.771703 -0.0772,-0.983921 -0.0965,-0.270096 -0.27974,-0.395498 -0.18328,-0.125402 -0.6463,-0.173633 v -0.356913 z" />
      <path
         id="path33"
         style="font-weight:bold"
         d="m 120.63834,24.556589 q 0.62701,0 1.06109,0.44373 0.43408,0.434083 0.43408,1.051445 0,0.617363 -0.44373,1.051446 -0.43408,0.434083 -1.05144,0.434083 -0.61736,0 -1.05145,-0.434083 -0.43408,-0.434083 -0.43408,-1.051446 0,-0.617362 0.43408,-1.051445 0.43409,-0.44373 1.05145,-0.44373 z m 1.35048,4.369769 v 7.1479 q 0,0.954983 0.22186,1.225079 0.22187,0.26045 0.86817,0.299035 v 0.347266 h -4.87138 v -0.347266 q 0.59807,-0.01929 0.88746,-0.347266 0.19293,-0.221865 0.19293,-1.176848 v -5.266873 q 0,-0.954983 -0.22187,-1.215433 -0.22186,-0.270096 -0.85852,-0.308681 v -0.356913 z" />
      <path
         id="path35"
         style="font-weight:bold"
         d="m 127.52578,25.627327 v 3.299031 h 2.14148 v 0.954983 h -2.14148 v 5.565909 q 0,0.781349 0.0675,1.01286 0.0772,0.221865 0.26045,0.366559 0.18328,0.135048 0.33762,0.135048 0.62701,0 1.18649,-0.954983 l 0.28939,0.212219 q -0.78135,1.852087 -2.53697,1.852087 -0.85852,0 -1.45659,-0.472668 -0.58843,-0.482314 -0.75241,-1.070738 -0.0965,-0.327974 -0.0965,-1.774917 v -4.871376 h -1.17684 v -0.33762 q 1.21543,-0.85852 2.0643,-1.803856 0.85852,-0.945337 1.49518,-2.112538 z" />
      <path
         id="path37"
         style="font-weight:bold"
         d="m 132.71549,24.556589 q 0.62701,0 1.06109,0.44373 0.43408,0.434083 0.43408,1.051445 0,0.617363 -0.44373,1.051446 -0.43408,0.434083 -1.05144,0.434083 -0.61737,0 -1.05145,-0.434083 -0.43408,-0.434083 -0.43408,-1.051446 0,-0.617362 0.43408,-1.051445 0.43408,-0.44373 1.05145,-0.44373 z m 1.35048,4.369769 v 7.1479 q 0,0.954983 0.22186,1.225079 0.22187,0.26045 0.86817,0.299035 v 0.347266 h -4.87138 v -0.347266 q 0.59807,-0.01929 0.88746,-0.347266 0.19293,-0.221865 0.19293,-1.176848 v -5.266873 q 0,-0.954983 -0.22187,-1.215433 -0.22186,-0.270096 -0.85852,-0.308681 v -0.356913 z" />
      <path
         id="path39"
         style="font-weight:bold"
         d="m 139.70905,28.926358 v 1.167201 q 0.69453,-0.75241 1.33119,-1.09003 0.63665,-0.347267 1.36977,-0.347267 0.87781,0 1.45659,0.491961 0.57878,0.482314 0.7717,1.205786 0.15434,0.549838 0.15434,2.112537 v 3.511249 q 0,1.0418 0.18328,1.30225 0.19293,0.250803 0.791,0.318327 v 0.347266 h -4.5627 v -0.347266 q 0.51126,-0.06752 0.73312,-0.424437 0.15434,-0.241157 0.15434,-1.19614 v -4.012856 q 0,-1.109323 -0.0868,-1.398712 -0.0868,-0.289388 -0.29904,-0.443729 -0.20257,-0.163987 -0.45337,-0.163987 -0.82959,0 -1.54341,1.186494 v 4.83279 q 0,1.012861 0.18328,1.282957 0.19292,0.270096 0.70418,0.33762 v 0.347266 h -4.5627 v -0.347266 q 0.56913,-0.05788 0.81029,-0.366559 0.16399,-0.212218 0.16399,-1.254018 v -5.09324 q 0,-1.022507 -0.19293,-1.27331 -0.18328,-0.250804 -0.78135,-0.327974 v -0.356913 z" />
      <path
         id="path41"
         style="font-weight:bold"
         d="m 152.80871,29.032467 h 3.03858 v 1.061092 h -1.72668 q 0.47267,0.472668 0.65595,0.85852 0.23151,0.520899 0.23151,1.090031 0,0.964628 -0.5402,1.678454 -0.53054,0.704179 -1.45658,1.109323 -0.9164,0.395498 -1.63023,0.395498 -0.0579,0 -1.15755,-0.04823 -0.43409,0 -0.73312,0.289389 -0.28939,0.279743 -0.28939,0.67524 0,0.347267 0.26045,0.569131 0.2701,0.221865 0.86817,0.221865 l 1.6688,-0.01929 q 2.02573,0 2.78778,0.443729 1.09003,0.617362 1.09003,1.900319 0,0.819934 -0.5016,1.485528 -0.50161,0.675241 -1.32155,0.993568 -1.24437,0.472668 -2.86494,0.472668 -1.21544,0 -2.21865,-0.241157 -1.00321,-0.231511 -1.4373,-0.655948 -0.43408,-0.41479 -0.43408,-0.877812 0,-0.443729 0.32797,-0.800642 0.33762,-0.347266 1.24438,-0.588424 -1.25402,-0.617362 -1.25402,-1.717039 0,-0.665594 0.51125,-1.292603 0.51125,-0.627009 1.62058,-1.09003 -1.29261,-0.472669 -1.87138,-1.244372 -0.57878,-0.771703 -0.57878,-1.784563 0,-1.321542 1.08038,-2.286171 1.08039,-0.974275 2.77814,-0.974275 0.8971,0 1.85208,0.376205 z m -1.6688,0.221865 q -0.55949,0 -0.94534,0.569131 -0.38585,0.559485 -0.38585,2.334402 0,1.437297 0.3762,1.977489 0.38585,0.530546 0.90675,0.530546 0.57878,0 0.96463,-0.530546 0.38585,-0.530546 0.38585,-2.064306 0,-1.726685 -0.43408,-2.353694 -0.30868,-0.463022 -0.86816,-0.463022 z m -0.56914,10.022494 q -0.98392,0 -1.30224,0.163987 -0.54984,0.299035 -0.54984,0.810289 0,0.49196 0.56913,0.887458 0.56913,0.405144 2.14147,0.405144 1.34084,0 2.10289,-0.356912 0.77171,-0.356913 0.77171,-1.003214 0,-0.241158 -0.1447,-0.405145 -0.26045,-0.289388 -0.79099,-0.395497 -0.5209,-0.10611 -2.79743,-0.10611 z" />
      <path
         id="path43"
         style="font-weight:bold"
         d="m 158.7026,34.974581 q 0.67524,0 1.13826,0.472669 0.47267,0.472668 0.47267,1.138262 0,0.665594 -0.47267,1.138262 -0.47267,0.463022 -1.13826,0.463022 -0.6656,0 -1.13827,-0.463022 -0.46302,-0.472668 -0.46302,-1.138262 0,-0.665594 0.46302,-1.138262 0.47267,-0.472669 1.13827,-0.472669 z" />
      <path
         id="path45"
         style="font-weight:bold"
         d="m 52.699523,56.801931 v 3.627004 q 0,1.061092 0.125402,1.340835 0.135048,0.270096 0.463022,0.434083 0.33762,0.163987 1.225079,0.163987 v 0.356912 H 47.866732 V 62.36784 q 0.906752,0 1.225079,-0.163987 0.327974,-0.173634 0.453376,-0.44373 0.135048,-0.270096 0.135048,-1.331188 v -8.488734 q 0,-1.061092 -0.135048,-1.331188 -0.125402,-0.279742 -0.453376,-0.443729 -0.327974,-0.163987 -1.225079,-0.163987 v -0.356913 h 5.700957 q 2.816717,0 4.041795,1.003214 1.225079,1.003214 1.225079,2.508035 0,1.273311 -0.790996,2.180062 -0.790995,0.906751 -2.180061,1.234725 -0.93569,0.231511 -3.163983,0.231511 z m 0,-6.405136 v 5.652725 q 0.318328,0.01929 0.482315,0.01929 1.176847,0 1.813502,-0.694533 0.636655,-0.704179 0.636655,-2.170415 0,-1.45659 -0.636655,-2.13183 -0.636655,-0.67524 -1.900319,-0.67524 z" />
      <path
         id="path47"
         style="font-weight:bold"
         d="m 63.850634,53.705472 v 2.045013 q 0.897105,-1.398712 1.572345,-1.852087 0.67524,-0.463022 1.302249,-0.463022 0.540192,0 0.85852,0.33762 0.327973,0.327974 0.327973,0.93569 0,0.646301 -0.318327,1.003214 -0.308681,0.356913 -0.752411,0.356913 -0.511253,0 -0.887458,-0.327974 -0.376206,-0.327974 -0.44373,-0.366559 -0.09646,-0.05788 -0.221864,-0.05788 -0.279743,0 -0.530546,0.212219 -0.395498,0.327973 -0.59807,0.93569 -0.308681,0.93569 -0.308681,2.064305 v 2.073953 l 0.0096,0.540192 q 0,0.549838 0.06752,0.704179 0.115755,0.26045 0.33762,0.385851 0.231511,0.115756 0.771703,0.144695 v 0.347266 h -4.871376 v -0.347266 q 0.588424,-0.04823 0.790996,-0.318328 0.212218,-0.279742 0.212218,-1.456589 v -4.987132 q 0,-0.771703 -0.07717,-0.983921 -0.09646,-0.270096 -0.279742,-0.395498 -0.18328,-0.125402 -0.646302,-0.173633 v -0.356913 z" />
      <path
         id="path49"
         style="font-weight:bold"
         d="m 72.773451,53.435376 q 1.176847,0 2.189708,0.607716 1.01286,0.607716 1.533759,1.726686 0.530546,1.118969 0.530546,2.450157 0,1.919612 -0.974275,3.212214 -1.176847,1.562699 -3.250799,1.562699 -2.035367,0 -3.135044,-1.42765 -1.099677,-1.427651 -1.099677,-3.308678 0,-1.938904 1.118969,-3.376201 1.128616,-1.446943 3.086813,-1.446943 z m 0.03859,0.684886 q -0.491961,0 -0.848873,0.376206 -0.347267,0.366559 -0.463022,1.466236 -0.106109,1.09003 -0.106109,3.038581 0,1.032153 0.135048,1.929257 0.106109,0.684887 0.453375,1.0418 0.347267,0.356912 0.790996,0.356912 0.434083,0 0.723472,-0.241157 0.376205,-0.327974 0.501607,-0.916397 0.192925,-0.916398 0.192925,-3.704175 0,-1.639869 -0.183279,-2.247586 -0.18328,-0.617362 -0.540192,-0.897105 -0.250804,-0.202572 -0.655948,-0.202572 z" />
      <path
         id="path51"
         style="font-weight:bold"
         d="m 82.651251,53.435376 q 1.176847,0 2.189708,0.607716 1.01286,0.607716 1.533759,1.726686 0.530546,1.118969 0.530546,2.450157 0,1.919612 -0.974275,3.212214 -1.176847,1.562699 -3.250799,1.562699 -2.035367,0 -3.135044,-1.42765 -1.099677,-1.427651 -1.099677,-3.308678 0,-1.938904 1.118969,-3.376201 1.128616,-1.446943 3.086813,-1.446943 z m 0.03858,0.684886 q -0.491961,0 -0.848873,0.376206 -0.347267,0.366559 -0.463022,1.466236 -0.106109,1.09003 -0.106109,3.038581 0,1.032153 0.135048,1.929257 0.106109,0.684887 0.453375,1.0418 0.347267,0.356912 0.790996,0.356912 0.434083,0 0.723472,-0.241157 0.376205,-0.327974 0.501607,-0.916397 0.192925,-0.916398 0.192925,-3.704175 0,-1.639869 -0.183279,-2.247586 -0.18328,-0.617362 -0.540192,-0.897105 -0.250804,-0.202572 -0.655948,-0.202572 z" />
      <path
         id="path53"
         style="font-weight:bold"
         d="m 92.230014,54.650808 v 6.260442 q 0,0.906751 0.192926,1.138262 0.308681,0.356913 1.138262,0.327974 v 0.347266 h -5.315105 v -0.347266 q 0.607716,-0.0096 0.858519,-0.135048 0.26045,-0.135048 0.356913,-0.366559 0.09646,-0.231511 0.09646,-0.964629 v -6.260442 h -1.311895 v -0.945336 h 1.311895 v -0.665594 l -0.0096,-0.453376 q 0,-1.389065 1.01286,-2.315109 1.022507,-0.926044 2.758839,-0.926044 1.186493,0 1.755624,0.44373 0.578778,0.443729 0.578778,0.983921 0,0.434083 -0.356913,0.752411 -0.356913,0.318327 -0.945336,0.318327 -0.501607,0 -0.800642,-0.26045 -0.289389,-0.260449 -0.289389,-0.578777 0,-0.08682 0.05788,-0.356913 0.03859,-0.163987 0.03859,-0.308681 0,-0.202572 -0.115756,-0.299035 -0.15434,-0.144694 -0.376205,-0.144694 -0.279742,0 -0.472668,0.231511 -0.18328,0.231511 -0.18328,0.742764 l 0.01929,1.688101 v 1.147908 h 1.331188 v 0.945336 z" />
      <path
         id="path55"
         style="font-weight:bold"
         d="m 98.61586,53.705472 v 2.045013 q 0.897105,-1.398712 1.57235,-1.852087 0.67524,-0.463022 1.30224,-0.463022 0.5402,0 0.85852,0.33762 0.32798,0.327974 0.32798,0.93569 0,0.646301 -0.31833,1.003214 -0.30868,0.356913 -0.75241,0.356913 -0.51125,0 -0.88746,-0.327974 -0.3762,-0.327974 -0.44373,-0.366559 -0.0965,-0.05788 -0.22186,-0.05788 -0.279745,0 -0.530549,0.212219 -0.395498,0.327973 -0.59807,0.93569 -0.308681,0.93569 -0.308681,2.064305 v 2.073953 l 0.0096,0.540192 q 0,0.549838 0.06752,0.704179 0.115756,0.26045 0.337621,0.385851 0.23151,0.115756 0.771703,0.144695 v 0.347266 h -4.871376 v -0.347266 q 0.588423,-0.04823 0.790995,-0.318328 0.212219,-0.279742 0.212219,-1.456589 v -4.987132 q 0,-0.771703 -0.07717,-0.983921 Q 95.760559,54.36142 95.577279,54.236018 95.394,54.110616 94.930978,54.062385 v -0.356913 z" />
      <path
         id="path57"
         style="font-weight:bold"
         d="m 110.92452,57.891961 h -4.94854 q 0.0868,1.79421 0.95498,2.836009 0.6656,0.800642 1.60129,0.800642 0.57877,0 1.05144,-0.318327 0.47267,-0.327974 1.01286,-1.167201 l 0.32797,0.212218 q -0.73311,1.495175 -1.62057,2.122184 -0.88746,0.617362 -2.05466,0.617362 -2.00643,0 -3.03858,-1.543406 -0.82958,-1.244371 -0.82958,-3.086812 0,-2.257232 1.21543,-3.58842 1.22508,-1.340834 2.86495,-1.340834 1.36977,0 2.37298,1.128616 1.01286,1.118969 1.09003,3.327969 z m -2.37298,-0.646301 q 0,-1.553052 -0.17364,-2.13183 -0.16398,-0.578777 -0.5209,-0.877812 -0.20257,-0.173633 -0.54019,-0.173633 -0.5016,0 -0.81993,0.49196 -0.56913,0.85852 -0.56913,2.353695 v 0.33762 z" />
      <path
         id="path59"
         style="font-weight:bold"
         d="m 117.02098,61.393564 q -1.64952,1.45659 -2.96141,1.45659 -0.77171,0 -1.28296,-0.501607 -0.51125,-0.511253 -0.51125,-1.27331 0,-1.032153 0.88745,-1.852088 0.88746,-0.829581 3.86817,-2.199354 v -0.906751 q 0,-1.022506 -0.11576,-1.282956 -0.10611,-0.270096 -0.41479,-0.463022 -0.30868,-0.202572 -0.69453,-0.202572 -0.62701,0 -1.03216,0.279742 -0.2508,0.173633 -0.2508,0.405144 0,0.202572 0.2701,0.501607 0.36656,0.414791 0.36656,0.800642 0,0.472669 -0.35692,0.810289 -0.34726,0.327973 -0.91639,0.327973 -0.60772,0 -1.02251,-0.366558 -0.40514,-0.366559 -0.40514,-0.85852 0,-0.694533 0.54983,-1.321542 0.54984,-0.636655 1.53376,-0.974275 0.98393,-0.33762 2.04502,-0.33762 1.28295,0 2.02572,0.549838 0.75241,0.540193 0.97427,1.176848 0.13505,0.405144 0.13505,1.861733 v 3.501603 q 0,0.617363 0.0482,0.78135 0.0482,0.15434 0.1447,0.231511 0.0965,0.07717 0.22186,0.07717 0.2508,0 0.51125,-0.356913 l 0.28939,0.231511 q -0.48231,0.713826 -1.00321,1.041799 -0.51125,0.318328 -1.1672,0.318328 -0.7717,0 -1.20579,-0.356913 -0.43408,-0.366559 -0.53054,-1.099677 z m 0,-0.704179 v -3.019288 q -1.1672,0.684886 -1.73634,1.466236 -0.3762,0.520899 -0.3762,1.051445 0,0.443729 0.31833,0.78135 0.24115,0.260449 0.67524,0.260449 0.48231,0 1.11897,-0.540192 z" />
      <path
         id="path61"
         style="font-weight:bold"
         d="m 130.68977,49.644384 v 10.379407 q 0,1.051446 0.0579,1.244372 0.0772,0.318327 0.28938,0.472668 0.22187,0.15434 0.76206,0.192926 v 0.318327 l -3.81028,0.742764 v -1.42765 q -0.68489,0.82958 -1.22508,1.128615 -0.53055,0.299035 -1.20579,0.299035 -1.72668,0 -2.7299,-1.543406 -0.81029,-1.254018 -0.81029,-3.077166 0,-1.45659 0.50161,-2.604498 0.50161,-1.157555 1.36977,-1.745979 0.87782,-0.588423 1.88103,-0.588423 0.6463,0 1.14791,0.250803 0.50161,0.250804 1.07074,0.877813 v -2.720254 q 0,-1.032153 -0.0868,-1.244371 -0.11576,-0.279742 -0.34727,-0.414791 -0.23151,-0.135048 -0.86816,-0.135048 v -0.405144 z m -2.70096,6.115748 q -0.71383,-1.369774 -1.74598,-1.369774 -0.35691,0 -0.58843,0.192926 -0.35691,0.299035 -0.58842,1.051446 -0.22186,0.75241 -0.22186,2.305463 0,1.707393 0.2508,2.527328 0.2508,0.819934 0.68489,1.186493 0.22186,0.18328 0.60771,0.18328 0.84888,0 1.60129,-1.331188 z" />
      <path
         id="path63"
         style="font-weight:bold"
         d="m 135.08848,49.335703 q 0.62701,0 1.06109,0.443729 0.43408,0.434083 0.43408,1.051446 0,0.617362 -0.44373,1.051445 -0.43408,0.434083 -1.05144,0.434083 -0.61736,0 -1.05145,-0.434083 -0.43408,-0.434083 -0.43408,-1.051445 0,-0.617363 0.43408,-1.051446 0.43409,-0.443729 1.05145,-0.443729 z m 1.35048,4.369769 v 7.1479 q 0,0.954983 0.22186,1.225079 0.22187,0.26045 0.86817,0.299035 v 0.347266 h -4.87138 v -0.347266 q 0.59807,-0.01929 0.88746,-0.347267 0.19293,-0.221864 0.19293,-1.176847 v -5.266874 q 0,-0.954982 -0.22187,-1.215432 -0.22186,-0.270096 -0.85852,-0.308681 v -0.356913 z" />
      <path
         id="path65"
         style="font-weight:bold"
         d="m 142.08203,53.705472 v 1.167201 q 0.69454,-0.752411 1.33119,-1.090031 0.63666,-0.347266 1.36977,-0.347266 0.87782,0 1.45659,0.491961 0.57878,0.482314 0.77171,1.205786 0.15434,0.549838 0.15434,2.112537 v 3.511249 q 0,1.041799 0.18328,1.302249 0.19292,0.250804 0.79099,0.318328 v 0.347266 h -4.56269 v -0.347266 q 0.51125,-0.06752 0.73312,-0.424437 0.15434,-0.241157 0.15434,-1.19614 v -4.012856 q 0,-1.109323 -0.0868,-1.398712 -0.0868,-0.289389 -0.29903,-0.443729 -0.20258,-0.163987 -0.45338,-0.163987 -0.82958,0 -1.54341,1.186493 v 4.832791 q 0,1.012861 0.18328,1.282957 0.19293,0.270096 0.70418,0.33762 v 0.347266 h -4.56269 v -0.347266 q 0.56913,-0.05788 0.81029,-0.366559 0.16398,-0.212219 0.16398,-1.254018 v -5.09324 q 0,-1.022507 -0.19292,-1.273311 -0.18328,-0.250803 -0.78135,-0.327973 v -0.356913 z" />
      <path
         id="path67"
         style="font-weight:bold"
         d="m 155.1817,53.811581 h 3.03858 v 1.061092 h -1.72669 q 0.47267,0.472668 0.65595,0.85852 0.23151,0.520899 0.23151,1.09003 0,0.964629 -0.54019,1.678455 -0.53055,0.704179 -1.45659,1.109323 -0.9164,0.395498 -1.63022,0.395498 -0.0579,0 -1.15756,-0.04823 -0.43408,0 -0.73312,0.289389 -0.28938,0.279742 -0.28938,0.67524 0,0.347267 0.26045,0.569131 0.27009,0.221865 0.86816,0.221865 l 1.66881,-0.01929 q 2.02572,0 2.78778,0.44373 1.09003,0.617362 1.09003,1.900319 0,0.819934 -0.50161,1.485528 -0.50161,0.67524 -1.32154,0.993568 -1.24437,0.472668 -2.86495,0.472668 -1.21543,0 -2.21865,-0.241157 -1.00321,-0.231511 -1.43729,-0.655948 -0.43409,-0.41479 -0.43409,-0.877812 0,-0.44373 0.32798,-0.800642 0.33762,-0.347267 1.24437,-0.588424 -1.25402,-0.617362 -1.25402,-1.717039 0,-0.665594 0.51126,-1.292603 0.51125,-0.627009 1.62057,-1.090031 -1.2926,-0.472668 -1.87138,-1.244371 -0.57878,-0.771703 -0.57878,-1.784563 0,-1.321542 1.08039,-2.286171 1.08038,-0.974275 2.77813,-0.974275 0.89711,0 1.85209,0.376205 z m -1.66881,0.221865 q -0.55948,0 -0.94534,0.569131 -0.38585,0.559485 -0.38585,2.334402 0,1.437297 0.37621,1.977489 0.38585,0.530546 0.90675,0.530546 0.57878,0 0.96463,-0.530546 0.38585,-0.530546 0.38585,-2.064306 0,-1.726686 -0.43408,-2.353694 -0.30869,-0.463022 -0.86817,-0.463022 z m -0.56913,10.022494 q -0.98392,0 -1.30225,0.163987 -0.54984,0.299035 -0.54984,0.810288 0,0.491961 0.56913,0.887459 0.56913,0.405144 2.14148,0.405144 1.34083,0 2.10289,-0.356913 0.7717,-0.356912 0.7717,-1.003214 0,-0.241157 -0.14469,-0.405144 -0.26045,-0.289389 -0.791,-0.395498 -0.5209,-0.106109 -2.79742,-0.106109 z" />
      <path
         id="path69"
         style="font-weight:bold"
         d="m 161.07558,59.753695 q 0.67524,0 1.13826,0.472668 0.47267,0.472669 0.47267,1.138262 0,0.665594 -0.47267,1.138263 -0.47267,0.463021 -1.13826,0.463021 -0.66559,0 -1.13826,-0.463021 -0.46302,-0.472669 -0.46302,-1.138263 0,-0.665593 0.46302,-1.138262 0.47267,-0.472668 1.13826,-0.472668 z" />
      <path
         id="path71"
         style="font-weight:bold"
         d="m 77.056403,75.175909 v 5.324751 h 0.26045 q 1.244371,0 1.803856,-0.781349 0.559485,-0.78135 0.713825,-2.305463 h 0.366559 v 6.848865 h -0.366559 q -0.115755,-1.11897 -0.49196,-1.832795 -0.366559,-0.713825 -0.85852,-0.954983 -0.491961,-0.250803 -1.427651,-0.250803 v 3.684882 q 0,1.080385 0.08682,1.321542 0.09646,0.241157 0.347266,0.395498 0.250804,0.15434 0.810288,0.15434 h 0.78135 q 1.832795,0 2.932472,-0.848873 1.109323,-0.848874 1.591637,-2.585206 h 0.356913 l -0.588424,4.157551 h -11.30545 v -0.356913 h 0.434083 q 0.569131,0 0.916397,-0.202572 0.250804,-0.135048 0.385852,-0.463022 0.106109,-0.231511 0.106109,-1.215432 v -8.60449 q 0,-0.887458 -0.04823,-1.090031 -0.09646,-0.33762 -0.356912,-0.520899 -0.366559,-0.270096 -1.003214,-0.270096 H 72.069272 V 74.423498 H 83.01781 v 3.868162 h -0.366559 q -0.279743,-1.418005 -0.790996,-2.035367 -0.501607,-0.617363 -1.427651,-0.906751 -0.540192,-0.173633 -2.02572,-0.173633 z" />
      <path
         id="path73"
         style="font-weight:bold"
         d="m 94.303968,74.423498 v 10.379407 q 0,1.051446 0.05788,1.244371 0.07717,0.318328 0.289389,0.472669 0.221865,0.15434 0.762057,0.192925 v 0.318328 l -3.810284,0.742764 v -1.427651 q -0.684887,0.829581 -1.225079,1.128616 -0.530546,0.299035 -1.205786,0.299035 -1.726686,0 -2.7299,-1.543406 -0.810288,-1.254018 -0.810288,-3.077166 0,-1.45659 0.501607,-2.604498 0.501607,-1.157555 1.369773,-1.745979 0.877812,-0.588423 1.881026,-0.588423 0.646302,0 1.147909,0.250803 0.501607,0.250804 1.070738,0.877812 v -2.720253 q 0,-1.032153 -0.08682,-1.244371 -0.115755,-0.279743 -0.347266,-0.414791 -0.231511,-0.135048 -0.868166,-0.135048 v -0.405144 z m -2.700961,6.115747 q -0.713826,-1.369773 -1.745979,-1.369773 -0.356912,0 -0.588423,0.192926 -0.356913,0.299035 -0.588424,1.051446 -0.221864,0.75241 -0.221864,2.305463 0,1.707393 0.250803,2.527327 0.250804,0.819935 0.684887,1.186494 0.221864,0.183279 0.607716,0.183279 0.848873,0 1.601284,-1.331187 z" />
      <path
         id="path75"
         style="font-weight:bold"
         d="m 98.702677,74.114817 q 0.627009,0 1.061092,0.443729 0.434081,0.434083 0.434081,1.051446 0,0.617362 -0.443728,1.051445 -0.434083,0.434083 -1.051445,0.434083 -0.617363,0 -1.051446,-0.434083 -0.434083,-0.434083 -0.434083,-1.051445 0,-0.617363 0.434083,-1.051446 0.434083,-0.443729 1.051446,-0.443729 z m 1.350483,4.369769 v 7.1479 q 0,0.954983 0.22186,1.225079 0.22187,0.260449 0.86817,0.299035 v 0.347266 H 96.271812 V 87.1566 q 0.59807,-0.01929 0.887459,-0.347267 0.192925,-0.221864 0.192925,-1.176847 v -5.266874 q 0,-0.954983 -0.221864,-1.215432 -0.221865,-0.270096 -0.85852,-0.308682 v -0.356912 z" />
      <path
         id="path77"
         style="font-weight:bold"
         d="m 105.59013,75.185555 v 3.299031 h 2.14147 v 0.954982 h -2.14147 v 5.565909 q 0,0.78135 0.0675,1.01286 0.0772,0.221865 0.26045,0.366559 0.18328,0.135049 0.33762,0.135049 0.62701,0 1.18649,-0.954983 l 0.28939,0.212218 q -0.78135,1.852088 -2.53697,1.852088 -0.85852,0 -1.45659,-0.472668 -0.58842,-0.482315 -0.75241,-1.070738 -0.0965,-0.327974 -0.0965,-1.774918 v -4.871376 h -1.17685 v -0.33762 q 1.21543,-0.858519 2.0643,-1.803856 0.85852,-0.945336 1.49518,-2.112537 z" />
      <path
         id="path79"
         style="font-weight:bold"
         d="m 110.77983,74.114817 q 0.62701,0 1.06109,0.443729 0.43408,0.434083 0.43408,1.051446 0,0.617362 -0.44373,1.051445 -0.43408,0.434083 -1.05144,0.434083 -0.61736,0 -1.05145,-0.434083 -0.43408,-0.434083 -0.43408,-1.051445 0,-0.617363 0.43408,-1.051446 0.43409,-0.443729 1.05145,-0.443729 z m 1.35048,4.369769 v 7.1479 q 0,0.954983 0.22186,1.225079 0.22187,0.260449 0.86817,0.299035 v 0.347266 h -4.87138 V 87.1566 q 0.59807,-0.01929 0.88746,-0.347267 0.19293,-0.221864 0.19293,-1.176847 v -5.266874 q 0,-0.954983 -0.22187,-1.215432 -0.22186,-0.270096 -0.85852,-0.308682 v -0.356912 z" />
      <path
         id="path81"
         style="font-weight:bold"
         d="m 117.77339,78.484586 v 1.167201 q 0.69453,-0.752411 1.33119,-1.090031 0.63665,-0.347266 1.36977,-0.347266 0.87781,0 1.45659,0.49196 0.57878,0.482315 0.7717,1.205787 0.15434,0.549838 0.15434,2.112537 v 3.511249 q 0,1.041799 0.18328,1.302249 0.19293,0.250804 0.791,0.318328 v 0.347266 h -4.5627 V 87.1566 q 0.51126,-0.06752 0.73312,-0.424437 0.15434,-0.241157 0.15434,-1.19614 v -4.012856 q 0,-1.109323 -0.0868,-1.398712 -0.0868,-0.289389 -0.29903,-0.443729 -0.20257,-0.163987 -0.45338,-0.163987 -0.82958,0 -1.5434,1.186493 v 4.832791 q 0,1.01286 0.18328,1.282956 0.19292,0.270097 0.70418,0.337621 v 0.347266 h -4.5627 V 87.1566 q 0.56913,-0.05788 0.81029,-0.366559 0.16399,-0.212219 0.16399,-1.254018 v -5.093241 q 0,-1.022506 -0.19293,-1.27331 -0.18328,-0.250803 -0.78135,-0.327974 v -0.356912 z" />
      <path
         id="path83"
         style="font-weight:bold"
         d="m 130.87305,78.590695 h 3.03858 v 1.061092 h -1.72668 q 0.47267,0.472668 0.65594,0.858519 0.23152,0.5209 0.23152,1.090031 0,0.964629 -0.5402,1.678454 -0.53054,0.704179 -1.45659,1.109324 -0.91639,0.395497 -1.63022,0.395497 -0.0579,0 -1.15755,-0.04823 -0.43409,0 -0.73312,0.289389 -0.28939,0.279742 -0.28939,0.67524 0,0.347266 0.26045,0.569131 0.2701,0.221865 0.86817,0.221865 l 1.6688,-0.01929 q 2.02572,0 2.78778,0.443729 1.09003,0.617363 1.09003,1.900319 0,0.819935 -0.50161,1.485529 -0.5016,0.67524 -1.32154,0.993568 -1.24437,0.472668 -2.86494,0.472668 -1.21544,0 -2.21865,-0.241157 -1.00322,-0.231511 -1.4373,-0.655948 -0.43408,-0.414791 -0.43408,-0.877812 0,-0.44373 0.32797,-0.800642 0.33762,-0.347267 1.24437,-0.588424 -1.25401,-0.617363 -1.25401,-1.71704 0,-0.665593 0.51125,-1.292602 0.51125,-0.627009 1.62058,-1.090031 -1.29261,-0.472668 -1.87138,-1.244371 -0.57878,-0.771703 -0.57878,-1.784564 0,-1.321541 1.08038,-2.28617 1.08039,-0.974275 2.77813,-0.974275 0.89711,0 1.85209,0.376205 z m -1.66881,0.221865 q -0.55948,0 -0.94533,0.569131 -0.38585,0.559484 -0.38585,2.334402 0,1.437297 0.3762,1.977489 0.38585,0.530546 0.90675,0.530546 0.57878,0 0.96463,-0.530546 0.38585,-0.530546 0.38585,-2.064306 0,-1.726686 -0.43408,-2.353695 -0.30868,-0.463021 -0.86817,-0.463021 z m -0.56913,10.022494 q -0.98392,0 -1.30225,0.163987 -0.54983,0.299035 -0.54983,0.810288 0,0.491961 0.56913,0.887459 0.56913,0.405144 2.14147,0.405144 1.34084,0 2.10289,-0.356913 0.77171,-0.356913 0.77171,-1.003214 0,-0.241157 -0.1447,-0.405144 -0.26045,-0.289389 -0.79099,-0.395498 -0.5209,-0.106109 -2.79743,-0.106109 z" />
      <path
         id="path85"
         style="font-weight:bold"
         d="m 136.76693,84.532809 q 0.67524,0 1.13827,0.472668 0.47266,0.472668 0.47266,1.138262 0,0.665594 -0.47266,1.138262 -0.47267,0.463022 -1.13827,0.463022 -0.66559,0 -1.13826,-0.463022 -0.46302,-0.472668 -0.46302,-1.138262 0,-0.665594 0.46302,-1.138262 0.47267,-0.472668 1.13826,-0.472668 z" />
    </g>
  </g>
</svg>
